<?xml version="1.0" encoding="iso-8859-1"?>
<!-- Generator: Adobe Illustrator 19.0.0, SVG Export Plug-In . SVG Version: 6.00 Build 0)  -->
<svg version="1.1" id="Capa_1" xmlns="http://www.w3.org/2000/svg" xmlns:xlink="http://www.w3.org/1999/xlink" x="0px" y="0px"
	 viewBox="0 0 512 512" style="enable-background:new 0 0 512 512;" xml:space="preserve">
<path style="fill:#FFC364;" d="M82.265,68C127.907,25.8,188.936,0,256,0s128.093,25.8,173.735,68H223.841H117.523H82.265z"/>
<path style="fill:#6CD0F5;" d="M512,256c0,141.385-114.615,256-256,256S0,397.385,0,256c0-10.414,0.64-20.677,1.849-30.766H0V70
	c0-5.523,4.477-10,10-10h81.336H180h240.664C476.502,106.96,512,177.329,512,256z"/>
<path style="fill:#46A5CD;" d="M0,125v-25h48V85c0-2.761,2.239-5,5-5h82c2.761,0,5,2.239,5,5v15h81.091h237.88
	c6.138,7.974,11.813,16.322,16.994,25H0z"/>
<path style="fill:#46738C;" d="M474.693,151.667H10c-5.523,0-10-4.477-10-10V110h466.277c6.182,8.886,11.815,18.183,16.851,27.841
	C486.41,144.135,481.791,151.667,474.693,151.667z"/>
<path style="fill:#3C5064;" d="M129,92v6c0,1.104-0.895,2-2,2H61c-1.104,0-2-0.896-2-2v-6c0-1.104,0.896-2,2-2h66
	C128.105,90,129,90.896,129,92z M448,120h-36c-1.105,0-2,0.896-2,2v6c0,1.104,0.895,2,2,2h36c1.105,0,2-0.896,2-2v-6
	C450,120.896,449.105,120,448,120z"/>
<path style="fill:#E6FAFF;" d="M30,128v-6c0-1.104,0.896-2,2-2h356c1.105,0,2,0.896,2,2v6c0,1.104-0.895,2-2,2H32
	C30.896,130,30,129.104,30,128z M484.238,140H0v110h0.074C0.028,251.995,0,253.994,0,256c0,141.385,114.615,256,256,256
	s256-114.615,256-256C512,214.237,501.981,174.823,484.238,140z"/>
<path style="fill:#CDF5FF;" d="M281,510.783c-8.227,0.797-16.564,1.217-25,1.217C114.615,512,0,397.385,0,256
	c0-2.006,0.028-4.005,0.074-6H0V140h50v110h0.074c-0.046,1.995-0.074,3.994-0.074,6C50,388.949,151.349,498.215,281,510.783z"/>
<path style="fill:#FFC364;" d="M32,170h465.178C506.764,196.881,512,225.827,512,256c0,24.131-3.344,47.48-9.585,69.615H32
	c-1.104,0-2-0.896-2-2V172C30,170.896,30.896,170,32,170z"/>
<path style="fill:#FF9B32;" d="M507.856,210H168c0,11.046-8.954,20-20,20l0,0c-11.046,0-20-8.954-20-20H98v20
	c0,11.046-8.954,20-20,20l0,0c-11.046,0-20-8.954-20-20v-20H30v-38c0-1.104,0.896-2,2-2h465.178
	C501.774,182.888,505.358,196.255,507.856,210z"/>
<path style="fill:#46A5CD;" d="M290,342v6c0,1.104-0.895,2-2,2H152c-1.104,0-2-0.896-2-2v-6c0-1.104,0.896-2,2-2h136
	C289.105,340,290,340.896,290,342z M178,360h-26c-1.104,0-2,0.896-2,2v6c0,1.104,0.896,2,2,2h26c1.105,0,2-0.896,2-2v-6
	C180,360.896,179.105,360,178,360z"/>
<path style="fill:#87DCFA;" d="M290,402v6c0,1.104-0.895,2-2,2H152c-1.104,0-2-0.896-2-2v-6c0-1.104,0.896-2,2-2h136
	C289.105,400,290,400.896,290,402z M238,420h-86c-1.104,0-2,0.896-2,2v6c0,1.104,0.896,2,2,2h86c1.105,0,2-0.896,2-2v-6
	C240,420.896,239.105,420,238,420z M238,440h-86c-1.104,0-2,0.896-2,2v6c0,1.104,0.896,2,2,2h86c1.105,0,2-0.896,2-2v-6
	C240,440.896,239.105,440,238,440z"/>
<path style="fill:#46738C;" d="M200,505.84V241.039v-6.027v-30.806c0-8.273,6.707-14.98,14.98-14.98h232.189
	c8.273,0,14.98,6.707,14.98,14.98v203.583C415.533,470.992,340.56,512,256,512C236.762,512,218.025,509.862,200,505.84z"/>
<path style="fill:#CDF5FF;" d="M217.494,509.117V242.004c0-2.115,1.64-3.83,3.664-3.83h219.833c2.024,0,3.664,1.715,3.664,3.83
	v187.028C397.859,480.026,330.667,512,256,512C242.911,512,230.054,511.012,217.494,509.117z"/>
<path style="fill:#3C5064;" d="M368.524,215.325c0,4.137-3.353,7.49-7.49,7.49h-59.92c-4.137,0-7.49-3.353-7.49-7.49
	c0-4.136,3.353-7.49,7.49-7.49h59.92C365.171,207.835,368.524,211.188,368.524,215.325z"/>
<path style="fill:#FFC364;" d="M444.655,242.004V380H217.494V242.004c0-2.115,1.64-3.83,3.664-3.83h219.833
	C443.014,238.174,444.655,239.889,444.655,242.004z"/>
<path style="fill:#E6FAFF;" d="M130,330c0,22.091-17.909,40-40,40s-40-17.909-40-40s17.909-40,40-40S130,307.909,130,330z
	 M331.074,340c-22.091,0-40,17.909-40,40s17.909,40,40,40s40-17.909,40-40S353.166,340,331.074,340z"/>
<path style="fill:#FF9B32;" d="M444.655,242.004V270h-24.403v50c0,11.046-8.954,20-20,20l0,0c-11.046,0-20-8.954-20-20v-50h-30
	c0,11.046-8.954,20-20,20s-20-8.954-20-20h-30v20c0,11.046-8.954,20-20,20s-20-8.954-20-20v-20h-22.758v-27.996
	c0-2.115,1.64-3.83,3.664-3.83h219.833C443.014,238.174,444.655,239.889,444.655,242.004z M331.074,350c-16.569,0-30,13.431-30,30
	s13.431,30,30,30s30-13.431,30-30S347.643,350,331.074,350z M90,300c-16.569,0-30,13.431-30,30s13.431,30,30,30s30-13.431,30-30
	S106.569,300,90,300z"/>
<path style="fill:#46A5CD;" d="M376.074,442v6c0,1.104-0.895,2-2,2h-86c-1.105,0-2-0.896-2-2v-6c0-1.104,0.895-2,2-2h86
	C375.179,440,376.074,440.896,376.074,442z M354.074,460h-46c-1.105,0-2,0.896-2,2v6c0,1.104,0.895,2,2,2h46c1.105,0,2-0.896,2-2v-6
	C356.074,460.896,355.179,460,354.074,460z"/>
<g>
</g>
<g>
</g>
<g>
</g>
<g>
</g>
<g>
</g>
<g>
</g>
<g>
</g>
<g>
</g>
<g>
</g>
<g>
</g>
<g>
</g>
<g>
</g>
<g>
</g>
<g>
</g>
<g>
</g>
</svg>
