<?xml version="1.0" encoding="iso-8859-1"?>
<!-- Generator: Adobe Illustrator 19.0.0, SVG Export Plug-In . SVG Version: 6.00 Build 0)  -->
<svg version="1.1" id="Capa_1" xmlns="http://www.w3.org/2000/svg" xmlns:xlink="http://www.w3.org/1999/xlink" x="0px" y="0px"
	 viewBox="0 0 512 512" style="enable-background:new 0 0 512 512;" xml:space="preserve">
<path style="fill:#FF4682;" d="M219.287,49.766H104.329C146.781,18.493,199.228,0,256,0s109.219,18.493,151.671,49.766H300.713
	H219.287z M400.781,280.234H119.219H1.141C12.772,404.082,112.625,502.271,237.21,511.311V342.209c0-2.761,2.239-5,5-5h256.631
	c6.073-18.169,10.157-37.248,12.013-56.975H400.781z"/>
<path style="fill:#D72D73;" d="M190.055,360h47.158v151.311c-18.297-1.328-36.054-4.592-53.083-9.564V365.925
	C184.129,362.653,186.782,360,190.055,360z"/>
<path style="fill:#DCD2CD;" d="M144.35,480.787c-28.853,28.853-74.251,31.037-105.636,6.595c-0.141,0.16-0.277,0.323-0.43,0.476
	l-21.213,21.213c-3.905,3.905-10.237,3.905-14.142,0s-3.905-10.237,0-14.142l21.213-21.213c0.153-0.153,0.316-0.289,0.476-0.43
	C0.177,441.901,2.36,396.503,31.213,367.65c31.242-31.242,81.895-31.242,113.137,0S175.592,449.545,144.35,480.787z"/>
<path style="fill:#B9783D;" d="M45.355,466.645c-23.431-23.431-23.431-61.421,0-84.853s61.421-23.431,84.853,0
	s23.431,61.421,0,84.853S68.787,490.076,45.355,466.645z"/>
<path style="fill:#D29650;" d="M71.522,440.478c-8.98-8.98-8.98-23.539,0-32.52s23.539-8.98,32.519,0s8.98,23.539,0,32.52
	S80.502,449.458,71.522,440.478z"/>
<path style="fill:#46A5CD;" d="M512,256c0,10.013-0.595,19.885-1.713,29.598C508.489,288.254,505.449,290,502,290H10
	c-3.449,0-6.489-1.746-8.287-4.402C0.595,275.885,0,266.013,0,256C0,165.202,47.274,85.45,118.548,40h274.904
	C464.726,85.45,512,165.202,512,256z"/>
<path style="fill:#FFFF91;" d="M502.582,325C472.46,432.866,373.476,512,256,512c-10.494,0-20.837-0.646-31-1.873V330
	c0-2.761,2.239-5,5-5H502.582z"/>
<path style="fill:#6CD0F5;" d="M160,145v-30c0-2.761,2.239-5,5-5h40c2.761,0,5,2.239,5,5v30c0,2.761-2.239,5-5,5h-40
	C162.239,150,160,147.761,160,145z M235,90h40c2.761,0,5-2.239,5-5V65c0-2.761-2.239-5-5-5h-40c-2.761,0-5,2.239-5,5v20
	C230,87.761,232.239,90,235,90z M235,150h40c2.761,0,5-2.239,5-5v-30c0-2.761-2.239-5-5-5h-40c-2.761,0-5,2.239-5,5v30
	C230,147.761,232.239,150,235,150z M165,90h40c2.761,0,5-2.239,5-5V65c0-2.761-2.239-5-5-5h-40c-2.761,0-5,2.239-5,5v20
	C160,87.761,162.239,90,165,90z M235,210h40c2.761,0,5-2.239,5-5v-30c0-2.761-2.239-5-5-5h-40c-2.761,0-5,2.239-5,5v30
	C230,207.761,232.239,210,235,210z M305,90h40c2.761,0,5-2.239,5-5V65c0-2.761-2.239-5-5-5h-40c-2.761,0-5,2.239-5,5v20
	C300,87.761,302.239,90,305,90z M305,210h60c2.761,0,5-2.239,5-5v-30c0-2.761-2.239-5-5-5h-60c-2.761,0-5,2.239-5,5v30
	C300,207.761,302.239,210,305,210z M466.291,110H305c-2.761,0-5,2.239-5,5v30c0,2.761,2.239,5,5,5h180
	c1.335,0,2.541-0.531,3.438-1.384C482.164,135.06,474.741,122.148,466.291,110z M375,90h75.87
	c-9.222-10.815-19.328-20.851-30.206-30H375c-2.761,0-5,2.239-5,5v20C370,87.761,372.239,90,375,90z M25,210h40c2.761,0,5-2.239,5-5
	v-30c0-2.761-2.239-5-5-5H25c-2.761,0-5,2.239-5,5v30C20,207.761,22.239,210,25,210z M165,210h40c2.761,0,5-2.239,5-5v-30
	c0-2.761-2.239-5-5-5h-40c-2.761,0-5,2.239-5,5v30C160,207.761,162.239,210,165,210z M65,150c2.761,0,5-2.239,5-5v-30
	c0-2.761-2.239-5-5-5H45.709c-8.659,12.448-16.245,25.696-22.615,39.619C23.682,149.862,24.324,150,25,150H65z M315,230H25
	c-2.761,0-5,2.239-5,5v30c0,2.761,2.239,5,5,5h290c2.761,0,5-2.239,5-5v-30C320,232.239,317.761,230,315,230z M140,85V65
	c0-2.761-2.239-5-5-5H91.336C80.458,69.149,70.352,79.185,61.13,90H135C137.761,90,140,87.761,140,85z M140,115c0-2.761-2.239-5-5-5
	H95c-2.761,0-5,2.239-5,5v30c0,2.761,2.239,5,5,5h40c2.761,0,5-2.239,5-5V115z M135,170H95c-2.761,0-5,2.239-5,5v30
	c0,2.761,2.239,5,5,5h40c2.761,0,5-2.239,5-5v-30C140,172.239,137.761,170,135,170z M475,230h-40v-35c0-2.761-2.239-5-5-5h-30
	c-2.761,0-5,2.239-5,5v35h-40c-2.761,0-5,2.239-5,5v30c0,2.761,2.239,5,5,5h45h30h45c2.761,0,5-2.239,5-5v-30
	C480,232.239,477.761,230,475,230z"/>
<path style="fill:#9B9696;" d="M309.568,378.5c0,1.306-1.059,2.365-2.365,2.365H200.608c-1.306,0-2.365-1.059-2.365-2.365
	s1.059-2.365,2.365-2.365h106.595C308.509,376.135,309.568,377.194,309.568,378.5z"/>
<path style="fill:#3C5064;" d="M352.135,369.311v18.378c0,2.761-2.239,5-5,5H245.811c-2.761,0-5-2.239-5-5v-1.622h-13.919
	c-2.761,0-5-2.239-5-5v-5.135c0-2.761,2.239-5,5-5h13.919v-1.622c0-2.761,2.239-5,5-5h101.324
	C349.897,364.311,352.135,366.549,352.135,369.311z"/>
<path style="fill:#55879B;" d="M467.827,399.784H260c-2.761,0-5-2.239-5-5v-32.567c0-2.761,2.239-5,5-5h231.196
	C484.74,372.198,476.9,386.443,467.827,399.784z"/>
<path style="fill:#46738C;" d="M479.993,380c-3.764,6.788-7.819,13.392-12.166,19.784H260c-2.761,0-5-2.239-5-5V375
	c0,2.761,2.239,5,5,5h68.804h139.023H479.993z"/>
<path style="fill:#46A5CD;" d="M90,242v6c0,1.104-0.895,2-2,2H32c-1.105,0-2-0.896-2-2v-6c0-1.104,0.895-2,2-2h56
	C89.105,240,90,240.896,90,242z M32,190h6c1.105,0,2-0.896,2-2v-6c0-1.104-0.895-2-2-2h-6c-1.105,0-2,0.896-2,2v6
	C30,189.104,30.895,190,32,190z M108,180h-6c-1.105,0-2,0.896-2,2v6c0,1.104,0.895,2,2,2h6c1.105,0,2-0.896,2-2v-6
	C110,180.896,109.105,180,108,180z M108,120h-6c-1.105,0-2,0.896-2,2v6c0,1.104,0.895,2,2,2h6c1.105,0,2-0.896,2-2v-6
	C110,120.896,109.105,120,108,120z M178,180h-6c-1.105,0-2,0.896-2,2v6c0,1.104,0.895,2,2,2h6c1.105,0,2-0.896,2-2v-6
	C180,180.896,179.105,180,178,180z M178,120h-6c-1.105,0-2,0.896-2,2v6c0,1.104,0.895,2,2,2h6c1.105,0,2-0.896,2-2v-6
	C180,120.896,179.105,120,178,120z M248,180h-6c-1.105,0-2,0.896-2,2v6c0,1.104,0.895,2,2,2h6c1.105,0,2-0.896,2-2v-6
	C250,180.896,249.105,180,248,180z M318,180h-6c-1.105,0-2,0.896-2,2v6c0,1.104,0.895,2,2,2h6c1.105,0,2-0.896,2-2v-6
	C320,180.896,319.105,180,318,180z M387.052,240h-24.438c-1.105,0-2,0.896-2,2v6c0,1.104,0.895,2,2,2h24.438c1.105,0,2-0.896,2-2v-6
	C389.052,240.896,388.157,240,387.052,240z M248,120h-6c-1.105,0-2,0.896-2,2v6c0,1.104,0.895,2,2,2h6c1.105,0,2-0.896,2-2v-6
	C250,120.896,249.105,120,248,120z M348,120h-36c-1.105,0-2,0.896-2,2v6c0,1.104,0.895,2,2,2h36c1.105,0,2-0.896,2-2v-6
	C350,120.896,349.105,120,348,120z M188,70h-16c-1.105,0-2,0.896-2,2v6c0,1.104,0.895,2,2,2h16c1.105,0,2-0.896,2-2v-6
	C190,70.896,189.105,70,188,70z M258,70h-16c-1.105,0-2,0.896-2,2v6c0,1.104,0.895,2,2,2h16c1.105,0,2-0.896,2-2v-6
	C260,70.896,259.105,70,258,70z M312,80h16c1.105,0,2-0.896,2-2v-6c0-1.104-0.895-2-2-2h-16c-1.105,0-2,0.896-2,2v6
	C310,79.104,310.895,80,312,80z M382,80h59.892c-3.244-3.425-6.581-6.759-10.008-10H382c-1.105,0-2,0.896-2,2v6
	C380,79.104,380.895,80,382,80z M118,70H80.116c-3.427,3.241-6.764,6.575-10.008,10H118c1.105,0,2-0.896,2-2v-6
	C120,70.896,119.105,70,118,70z"/>
<g>
</g>
<g>
</g>
<g>
</g>
<g>
</g>
<g>
</g>
<g>
</g>
<g>
</g>
<g>
</g>
<g>
</g>
<g>
</g>
<g>
</g>
<g>
</g>
<g>
</g>
<g>
</g>
<g>
</g>
</svg>
