<?xml version="1.0" encoding="iso-8859-1"?>
<!-- Generator: Adobe Illustrator 19.0.0, SVG Export Plug-In . SVG Version: 6.00 Build 0)  -->
<svg version="1.1" id="Capa_1" xmlns="http://www.w3.org/2000/svg" xmlns:xlink="http://www.w3.org/1999/xlink" x="0px" y="0px"
	 viewBox="0 0 512 512" style="enable-background:new 0 0 512 512;" xml:space="preserve">
<path style="fill:#FFE13C;" d="M511.994,254.297c0.434,66.78-24.707,127.679-66.202,173.492c-4.428,4.888-12.562,1.729-12.562-4.867
	l0,0c0-18.182-14.74-32.922-32.922-32.922H65.073c-9.005,0-16.304,7.3-16.304,16.304l0,0C18.101,364.095,0,312.165,0,256
	C0,114.777,114.353,0.263,255.514,0C395.974-0.261,511.081,113.839,511.994,254.297z"/>
<path style="fill:#6CD0F5;" d="M441,260H71c-2.761,0-5-2.239-5-5V5c0-2.761,2.239-5,5-5h370c2.761,0,5,2.239,5,5v250
	C446,257.761,443.761,260,441,260z"/>
<path style="fill:#46A5CD;" d="M446,40v180H66V40h44V28c0-5.523,4.477-10,10-10h60c5.523,0,10,4.477,10,10v12H446z"/>
<path style="fill:#46738C;" d="M426,100H86c-11.046,0-20-8.954-20-20V50h380v30C446,91.046,437.046,100,426,100z"/>
<path style="fill:#3C5064;" d="M180,32v6c0,1.104-0.895,2-2,2h-56c-1.104,0-2-0.896-2-2v-6c0-1.104,0.896-2,2-2h56
	C179.105,30,180,30.896,180,32z M418,60h-36c-1.104,0-2,0.896-2,2v6c0,1.104,0.896,2,2,2h36c1.105,0,2-0.896,2-2v-6
	C420,60.896,419.105,60,418,60z"/>
<path style="fill:#E6FAFF;" d="M90,68v-6c0-1.104,0.896-2,2-2h276c1.105,0,2,0.896,2,2v6c0,1.104-0.895,2-2,2H92
	C90.896,70,90,69.104,90,68z M66,80v347.561C112.848,479.412,180.616,512,256,512s143.152-32.588,190-84.439V80H66z"/>
<path style="fill:#6CD0F5;" d="M460,152v106c0,1.104-0.895,2-2,2H52c-1.104,0-2-0.896-2-2V152c0-1.104,0.896-2,2-2h406
	C459.105,150,460,150.896,460,152z M256,350c-11.046,0-20,8.954-20,20s8.954,20,20,20c11.046,0,20-8.954,20-20S267.046,350,256,350z
	 M110,130c11.046,0,20-8.954,20-20s-8.954-20-20-20s-20,8.954-20,20S98.954,130,110,130z M156,350c-11.046,0-20,8.954-20,20
	s8.954,20,20,20s20-8.954,20-20S167.046,350,156,350z M356,350c-11.046,0-20,8.954-20,20s8.954,20,20,20s20-8.954,20-20
	S367.046,350,356,350z"/>
<path style="fill:#CDF5FF;" d="M270,188v-6c0-1.104,0.896-2,2-2h56c1.104,0,2,0.896,2,2v6c0,1.104-0.896,2-2,2h-56
	C270.896,190,270,189.104,270,188z M408,200H272c-1.104,0-2,0.896-2,2v6c0,1.104,0.896,2,2,2h136c1.104,0,2-0.896,2-2v-6
	C410,200.896,409.104,200,408,200z"/>
<path style="fill:#46A5CD;" d="M420,107v6c0,1.104-0.895,2-2,2h-16c-1.104,0-2-0.896-2-2v-6c0-1.104,0.896-2,2-2h16
	C419.105,105,420,105.896,420,107z M185,170c-19.33,0-35,15.67-35,35s15.67,35,35,35s35-15.67,35-35S204.33,170,185,170z M328,220
	h-56c-1.104,0-2,0.896-2,2v6c0,1.104,0.896,2,2,2h56c1.104,0,2-0.896,2-2v-6C330,220.896,329.104,220,328,220z"/>
<path style="fill:#87DCFA;" d="M150,298v-6c0-1.104,0.896-2,2-2h208c1.105,0,2,0.896,2,2v6c0,1.104-0.895,2-2,2H152
	C150.896,300,150,299.104,150,298z M300,310h-88c-1.104,0-2,0.896-2,2v6c0,1.104,0.896,2,2,2h88c1.105,0,2-0.896,2-2v-6
	C302,310.896,301.105,310,300,310z M290,410h-68c-1.104,0-2,0.896-2,2v6c0,1.104,0.896,2,2,2h68c1.105,0,2-0.896,2-2v-6
	C292,410.896,291.105,410,290,410z M280,430h-48c-1.104,0-2,0.896-2,2v6c0,1.104,0.896,2,2,2h48c1.105,0,2-0.896,2-2v-6
	C282,430.896,281.105,430,280,430z M332,115h26c1.105,0,2-0.896,2-2v-6c0-1.104-0.895-2-2-2h-26c-1.104,0-2,0.896-2,2v6
	C330,114.104,330.896,115,332,115z M218.667,115h26c1.104,0,2-0.896,2-2v-6c0-1.104-0.896-2-2-2h-26c-1.105,0-2,0.896-2,2v6
	C216.667,114.104,217.562,115,218.667,115z M162,115h26c1.105,0,2-0.896,2-2v-6c0-1.104-0.895-2-2-2h-26c-1.104,0-2,0.896-2,2v6
	C160,114.104,160.896,115,162,115z M275.333,115h26c1.105,0,2-0.896,2-2v-6c0-1.104-0.895-2-2-2h-26c-1.105,0-2,0.896-2,2v6
	C273.333,114.104,274.229,115,275.333,115z M190,410h-68c-1.104,0-2,0.896-2,2v6c0,1.104,0.896,2,2,2h68c1.105,0,2-0.896,2-2v-6
	C192,410.896,191.105,410,190,410z M180,430h-48c-1.104,0-2,0.896-2,2v6c0,1.104,0.896,2,2,2h48c1.105,0,2-0.896,2-2v-6
	C182,430.896,181.105,430,180,430z M390,410h-68c-1.104,0-2,0.896-2,2v6c0,1.104,0.896,2,2,2h68c1.105,0,2-0.896,2-2v-6
	C392,410.896,391.105,410,390,410z M380,430h-48c-1.104,0-2,0.896-2,2v6c0,1.104,0.896,2,2,2h48c1.105,0,2-0.896,2-2v-6
	C382,430.896,381.105,430,380,430z"/>
<path style="fill:#D29650;" d="M110,175v24.302V430v36.291c-27.874-19.389-51.716-44.166-70-72.839V253.339V175c0-2.761,2.239-5,5-5
	h60C107.761,170,110,172.239,110,175z"/>
<path style="fill:#E6B464;" d="M110,175v24.302V430v36.291c-9.487-6.599-18.509-13.816-27-21.606v-1.547V170h22
	C107.761,170,110,172.238,110,175z"/>
<path style="fill:#B9783D;" d="M75,380h35v10H75c-1.104,0-2-0.896-2-2v-6C73,380.896,73.896,380,75,380z M93,352v6
	c0,1.104,0.896,2,2,2h15v-10H95C93.896,350,93,350.896,93,352z M93,412v6c0,1.104,0.896,2,2,2h15v-10H95
	C93.896,410,93,410.896,93,412z M93,442v6c0,1.104,0.896,2,2,2h15v-10H95C93.896,440,93,440.896,93,442z M73,292v6
	c0,1.104,0.896,2,2,2h35v-10H75C73.896,290,73,290.896,73,292z M75,200c-1.104,0-2,0.896-2,2v6c0,1.104,0.896,2,2,2h35v-10H75z
	 M93,322v6c0,1.104,0.896,2,2,2h15v-10H95C93.896,320,93,320.896,93,322z M93,232v6c0,1.104,0.896,2,2,2h15v-10H95
	C93.896,230,93,230.896,93,232z M93,262v6c0,1.104,0.896,2,2,2h15v-10H95C93.896,260,93,260.896,93,262z"/>
<g>
</g>
<g>
</g>
<g>
</g>
<g>
</g>
<g>
</g>
<g>
</g>
<g>
</g>
<g>
</g>
<g>
</g>
<g>
</g>
<g>
</g>
<g>
</g>
<g>
</g>
<g>
</g>
<g>
</g>
</svg>
